<svg version="1.1" xmlns="http://www.w3.org/2000/svg" viewBox="0 0 1128.7068481445312 957.7879943847656" width="1128.7068481445312" height="957.7879943847656">
  <!-- svg-source:excalidraw -->
  
  <defs>
    <style>
      @font-face {
        font-family: "Virgil";
        src: url("https://unpkg.com/@zsviczian/excalidraw@0.11.0-obsidian-20/dist/excalidraw-assets/Virgil.woff2");
      }
      @font-face {
        font-family: "Cascadia";
        src: url("https://unpkg.com/@zsviczian/excalidraw@0.11.0-obsidian-20/dist/excalidraw-assets/Cascadia.woff2");
      }
    </style>
  </defs>
  <g stroke-linecap="round" transform="translate(129.07440185546875 208.25531005859375) rotate(0 494.81622314453125 110.14006042480469)"><path d="M0 0 C0 0, 0 0, 0 0 M0 0 C0 0, 0 0, 0 0 M0.37 6.78 C1.08 4.79, 2.4 3.48, 5.41 0.32 M0.04 6.79 C1.1 4.71, 2.32 2.83, 4.66 0.75 M-1.16 11.38 C5.5 7.85, 7.26 2.18, 12.11 0.61 M-0.44 12.4 C4.17 7.71, 8.95 2.04, 10.22 -0.81 M0.89 19.06 C2.29 14.56, 8.02 8.83, 14.6 1.38 M-0.32 18.69 C4.81 13.7, 9.13 7.82, 16.5 -0.17 M-0.81 24.75 C7.6 15.49, 13.57 10.99, 23.2 -1.71 M-0.44 23.76 C5.28 17.2, 11.39 10.39, 20.85 0.76 M-0.96 29.52 C7.78 21.01, 17.17 13.02, 27.98 0.91 M0.45 31.33 C8.75 18.79, 19.79 8.82, 26.71 0.59 M0.59 35.57 C7.29 26.14, 16.19 16.75, 30 0.77 M-1.1 37.2 C9.81 25.16, 17.54 14.94, 32.4 -0.38 M-0.28 43.19 C11.43 28.62, 21.36 19.13, 35.52 0.37 M0.09 43.16 C9.97 31.49, 19.67 19.52, 37.14 1.19 M1.14 47.93 C10.26 35.32, 21.3 24.95, 44.39 -1.92 M-0.75 48.78 C11.73 34.43, 24.34 20.08, 41.78 -0.76 M2.19 54.17 C18.5 34.26, 37.74 14.82, 47.91 0.99 M-0.26 53.73 C16.98 36.32, 32.87 15.39, 46.97 -0.12 M-1.38 60.06 C14.42 41.71, 30.99 25.15, 53.21 1.79 M-0.76 61.36 C20.55 37.71, 39.39 15.91, 53.85 -1.05 M0.38 67.05 C23.94 42.59, 47.63 14.79, 57.13 -0.33 M-0.26 66.99 C20.16 45.04, 40.92 20.75, 58.24 -0.43 M0.75 73.11 C16.58 54.67, 31.23 38.64, 62.6 1.15 M1.04 73.72 C20.34 49.29, 43.18 24.16, 63.32 -0.29 M1.49 77.81 C17.06 60.37, 34.8 36.08, 68.48 1.01 M0.22 80.27 C23.16 50.41, 48.27 23.41, 67.82 -0.2 M0.58 83.93 C16.75 66.11, 33.45 47.9, 74 -0.9 M-0.36 85.28 C15.02 66.45, 31.54 50.57, 74.72 0.18 M-1.93 90.39 C14.69 72.81, 32.57 53.05, 80.57 1.28 M-0.81 90.85 C15.66 73.96, 32.22 55.23, 79.43 0.78 M-0.19 97.81 C23.2 72.58, 41.21 49.71, 84.19 0.25 M0.24 96.89 C26.82 67.18, 54.24 36.23, 84.46 0.62 M-1.37 101.67 C27.15 73.62, 51.84 44.84, 89.32 0.45 M-0.82 102.89 C30.19 69.54, 58.43 36.22, 89.63 -0.61 M-0.56 109.45 C26.52 82.1, 51.29 53.9, 97.25 -1.08 M0.83 109.79 C22.02 84.17, 44.63 60.02, 94.76 -1.01 M-0.99 114.2 C29.11 83.68, 61.94 47.85, 99.97 -1.82 M0.54 116.21 C31.29 79.85, 63.4 42.31, 99.83 -0.85 M-0.21 123.5 C21.38 94.48, 47.56 67.5, 104.56 -0.89 M0.29 122.12 C41.54 74.74, 82.31 26.63, 105.7 -1.1 M1.69 129 C31.4 87.92, 64.64 50.88, 111.06 1.81 M-1.19 129.04 C34.46 90.34, 69.11 50.87, 112.28 0.23 M-0.84 135.57 C25.41 104.08, 53.66 72.5, 116.18 -0.75 M0.99 133.94 C36.32 91.98, 73.04 50.09, 116.55 0.35 M-1.57 138.48 C28.01 107.51, 54.71 75, 122.46 -1.63 M-0.64 141 C27.68 108.12, 54.24 76.09, 122.07 -0.52 M1.16 144.93 C27.53 113.21, 52.84 85.74, 127.43 1.22 M0.15 145.96 C48.06 91.65, 94.46 38.38, 126.39 0.75 M-1.47 151.17 C41.14 105.88, 81.19 56.4, 131.46 -1.28 M-0.51 151.72 C48.04 98.66, 95.1 45.14, 133.07 0.34 M-1.74 159.25 C34.08 119.29, 69.1 76.92, 138.82 -1 M-0.76 158.36 C27.32 126.16, 54.39 95.59, 138.09 -0.48 M-1.26 164.02 C37.29 121.79, 74.63 77.78, 144.04 0.72 M0.66 165.28 C47.93 108.81, 95.41 54.49, 142.38 -0.79 M1.18 171.71 C36.05 128.17, 72.87 85.6, 147.59 -0.96 M0.22 171.4 C46.04 118.55, 93.17 64.77, 147.44 0.55 M-0.5 176.29 C43.53 126.19, 90.32 73.89, 152.93 -0.65 M0.77 176.42 C60.36 108.13, 118.32 41.51, 153.18 0.34 M-1.6 181.86 C41.4 135.83, 82.06 92.11, 157.22 1.41 M0.47 182.94 C42.7 134.19, 85.51 85.85, 159.11 0.17 M-0.14 189.36 C43.94 137.12, 88.74 88.52, 165.91 -0.37 M0.42 189.16 C44.86 136.78, 91.92 83.09, 164.1 -0.17 M0.79 194.78 C55.55 132.53, 106.9 73.64, 170.27 1.19 M0.53 194.19 C51.02 136.08, 103.56 74.97, 168.96 -0.25 M0.31 200.43 C65.03 129.36, 125.72 56.5, 175.02 -0.58 M0.33 201.47 C64.92 126.2, 129.78 50.92, 174.57 -0.5 M0.2 208.43 C50.15 149.93, 98.48 93.04, 179.08 1.56 M-0.03 206.75 C62.87 134.59, 124.75 64.21, 179.5 0.23 M-1.01 213.46 C40.04 168.37, 76.81 122.63, 186.54 -0.37 M0.73 213.36 C66.45 135.91, 132.85 58.45, 186.3 -0.07 M-1.09 218.53 C62.57 146.6, 125.43 74.46, 191.5 0.6 M-0.08 220.21 C62.64 145.55, 126.85 70.9, 191.26 0.65 M2.85 223.6 C72.87 141.29, 141.03 60.63, 195.1 0.87 M3.42 222.38 C65.94 147.15, 130.03 74.46, 196.93 -0.87 M6.63 221.5 C66.14 154.05, 125.98 86.84, 202.25 0.77 M7.35 222.03 C70.53 153.55, 131.4 82.69, 201.74 -0.06 M14.77 221.49 C56.18 173.2, 100.45 122.37, 205.49 0.56 M12.79 222.78 C75.38 151.68, 137.32 79.96, 206.44 0.18 M19.02 221.66 C88.32 141.43, 161.32 56.77, 211.8 -0.31 M17.84 221.97 C95.05 136.45, 170.83 50.46, 211.36 -0.29 M24.14 222.94 C85.85 151.38, 145.91 82.05, 217.45 -1.13 M24.38 222.16 C91.09 146.59, 155.27 70.36, 218.28 -0.82 M30.06 222.38 C89.43 155.4, 149.29 85.51, 222.97 -0.73 M29.36 222 C89.67 151.52, 151.41 82.62, 221.85 -0.17 M33.61 221.15 C77.11 177.14, 116.11 129.13, 228.74 -1.3 M34.12 221.77 C102.23 144.7, 170.01 65.46, 227.67 0.12 M40.31 223.78 C89.86 166.62, 139.8 109.33, 232.16 -0.31 M40.18 223.08 C103.46 149.23, 166.48 77.36, 233.36 -0.09 M45.33 222.41 C119.61 137.73, 193.59 52.8, 237.44 0.49 M45.2 222.61 C105.03 153.49, 164.16 85.4, 238.66 0.83 M51.27 222.76 C122.85 137.72, 194.08 55.46, 244.15 -0.58 M50.66 222.19 C112.86 153.22, 174.24 81.26, 244.46 -0.7 M54.99 222.41 C132.41 132.2, 209.4 46.66, 247.54 -0.75 M56.28 222.48 C114.4 156.65, 172.42 89.69, 249.02 0.33 M59.51 221.95 C134.67 138.32, 204.47 55.14, 254.34 1.14 M60.32 222.73 C111.61 167.05, 160.65 109.89, 255.06 0.07 M66.05 221.82 C118.12 158.9, 175.86 94.83, 259.07 0.89 M65.22 222.61 C105.01 175, 145.69 128.37, 259.64 0.4 M71.46 223.74 C143.04 143.71, 210.66 64.14, 266.47 -0.1 M72.26 222.65 C140.52 142.57, 210.93 61.33, 264.95 -0.4 M77.44 223.25 C148.27 139.34, 221.28 58.24, 270.72 1.45 M76.2 223.22 C127.86 165.88, 177.92 107.77, 269.69 -0.44 M82.65 221.38 C127.02 171.39, 170.41 121.03, 274.91 0.88 M82.8 221.88 C146.71 148.01, 212.43 72.69, 275.32 -0.57 M88.63 223.93 C138.74 161.95, 190.98 100.89, 282.16 -0.3 M86.85 223.56 C138.2 164.16, 188.95 105.59, 280.47 -0.19 M92.58 222.73 C143.37 165.01, 192.15 106.45, 285.37 -1.33 M93.33 222.31 C154.35 148.14, 217.43 74.7, 285.73 -0.61 M99.21 221.59 C151.04 162.02, 203.65 100.87, 291.05 0.11 M98.33 223.36 C169.8 139.76, 242.59 55.58, 290.94 0.64 M104.65 223.54 C164.88 154.76, 224.29 84.52, 297.13 0.96 M102.89 221.88 C173.46 142.25, 244.74 60.31, 297.11 0.52 M108.27 224.11 C176.57 142.25, 248.29 60.58, 301.97 0.99 M108.71 222.09 C171.94 148.56, 237.74 74.95, 302.17 0.58 M114.36 222.31 C155.41 171.56, 198.87 122.14, 308.94 -1.12 M114.13 221.97 C179.79 145.34, 246.22 68.85, 307.33 -0.82 M120.3 222.82 C196.1 137, 270.5 47.26, 311.59 0.41 M118.88 223.42 C165.05 169.12, 210.04 115.48, 312.88 0.11 M124.11 223.23 C168.78 169.41, 216.74 119.25, 319.05 -0.32 M124.39 222.97 C165.22 173.96, 206.26 127.31, 318.58 0.34 M130.42 222.17 C191.48 153.04, 252.57 83.24, 323.45 -0.81 M129.66 223.36 C196.71 143.89, 263.99 65.61, 323.91 0.18 M134.31 221.36 C204.25 144.55, 272.06 64.52, 328.18 -0.03 M136.07 222.78 C211.89 134.03, 287.42 46.16, 328.48 -0.15 M139.14 221.92 C212.33 142.61, 280.3 62.65, 333.18 0.87 M140.24 222.08 C197.26 156.16, 254.4 90.68, 333.75 0.78 M146.33 223.41 C220.11 138.26, 292.59 53.04, 339.48 0.58 M146.27 222.78 C219.77 138.22, 291.44 54.38, 338.98 -0.78 M152.41 223.1 C198.82 166.81, 246.59 113.64, 343.33 -0.14 M151.19 222.49 C202.39 161.39, 256.16 101.51, 344.47 -0.6 M156.59 221 C212.46 153.83, 272.01 87.76, 349.03 1.39 M157.18 221.84 C215.76 152.99, 276.4 84.53, 349.79 0.46 M160.83 222.04 C232.68 140.41, 304.99 58.25, 354.44 -0.75 M161.48 222.8 C208.32 169.61, 254.04 116.43, 355.84 -0.06 M168.44 223.34 C220.37 161.75, 272.83 98.52, 360.27 1.25 M167.15 222.3 C207.86 175.66, 247.94 128.43, 359.5 0.1 M172.29 222.27 C212.73 175.99, 253.38 127.58, 365.07 -1.08 M172.94 222.42 C233.29 150.67, 296.61 78.92, 365.25 -0.61 M176.59 222.34 C227.23 166.98, 276.05 108.59, 371.22 -0.43 M177.47 223.28 C248.35 141.79, 319.38 58.52, 370.55 -0.37 M182.32 222.63 C250.52 144.77, 316.69 68.52, 377.7 -1.48 M182.8 222.02 C223.26 173.42, 264.92 125.97, 376.66 -0.34 M187.65 222.27 C263.77 137.61, 340.91 50.28, 380.04 -0.77 M187.57 223.62 C250.62 148.47, 314.81 76.01, 381.47 -0.44 M194.81 223.2 C235.64 172.32, 280.48 123.21, 386.9 0.44 M194.14 221.99 C263.82 138.78, 336.01 55.44, 387.26 0.2 M198.3 223.49 C274.91 138.64, 347.61 52.16, 393.28 1.39 M198.51 223.42 C258.71 153.99, 318.9 85.04, 392.14 0.11 M204.26 222.36 C279.62 136.81, 354.73 49.45, 397.11 0.9 M203.99 222.47 C247.72 174.55, 288.69 126.03, 397.79 -0.55 M209.83 222.41 C274.89 146.08, 342.11 67, 402.14 -0.44 M209.66 222.5 C285.05 134.55, 360.8 48.88, 402.35 -0.2 M213.57 222.72 C262.83 164.7, 312.69 109.13, 407.8 -1.15 M215.18 221.88 C278.17 148.55, 342.99 74.75, 408.17 -0.71 M218.56 224.09 C290.18 139.41, 363.25 58.89, 412.15 0.36 M219.55 222.68 C278.66 154.07, 339.27 84.81, 413.24 -0.18 M225.09 222.17 C290.87 147.14, 355.33 71.08, 419.45 -1.04 M225.99 222.82 C281.67 158.44, 336.91 95.05, 418.94 -0.84 M230.7 221.53 C293 149.19, 355.4 74.77, 425.36 -0.19 M230.28 223.28 C285.72 158.69, 342.62 93.86, 424.37 -0.34 M234.78 222.86 C276.88 173.02, 318.36 127.97, 430.49 -0.29 M236.05 221.7 C309.38 138.18, 383.43 51.39, 429.76 0.42 M241.56 222.29 C291.69 161.62, 345.1 101.35, 434.42 1.11 M241.62 222.61 C279.44 176.3, 319.23 131, 435.17 0.01 M246.95 222.24 C317.22 143.3, 387.46 59.46, 440.36 -0.63 M246.37 222.1 C307.21 150.86, 368.31 79.33, 439.45 -0.97 M250.38 221.86 C300.14 166.93, 348.07 110.57, 446.28 -0.21 M250.99 222.47 C326.94 134.48, 403.72 46.51, 444.95 -0.15 M256.51 221.97 C325.03 142.22, 392.31 63.51, 449.48 -1.07 M257.85 222.88 C323.21 144.74, 388.15 70, 450.43 0.3 M263.32 221.41 C317.45 161.21, 372.59 97.13, 455.55 -1.39 M262.39 222.14 C313.94 163.07, 366.27 103.18, 455.87 -0.65 M266.77 222 C310.37 172.49, 354.74 126.45, 462.19 -0.85 M268.3 222.67 C317.25 164.45, 368.06 105.33, 461.28 -0.34 M272.67 221.9 C348.97 135.6, 425.72 49.75, 465.19 -1.42 M273 222.9 C331.42 153.7, 390.76 86.11, 467.03 -0.06 M277.55 223.55 C334.74 156.28, 392.48 92.46, 471.27 1.34 M278.37 222.78 C330.76 162.65, 383.06 102.31, 472.04 -0.27 M283.56 224.04 C354.74 140.94, 426 60.42, 477.68 -1.01 M283.61 222.06 C329.84 168.76, 376.22 115.4, 477.38 -0.17 M288.18 223.12 C363.88 138.62, 438.62 53.15, 481.38 1.3 M288.61 222.82 C347.85 154.76, 406.73 87.01, 482.37 -0.17 M293.21 222.39 C366.27 139.27, 439.33 54.19, 489.04 0.41 M294.17 221.85 C349.92 158.71, 404.27 96.31, 487.28 -0.09 M299.77 222.22 C375.66 138.02, 453.06 50.57, 493.2 -0.14 M298.79 222.86 C356.32 157.28, 411.66 92.4, 492.09 0.58 M305.72 223.14 C344.28 179.69, 381.83 134.19, 497.75 -1.28 M305.21 222.05 C361.22 157.3, 419.9 89.58, 498.41 -0.64 M308.96 224.3 C365.39 158.52, 424.3 92.89, 503.08 -0.17 M309.06 223.44 C366.49 157.63, 423.79 91.16, 503.76 0.85 M314.32 223.33 C388.81 136.47, 465.21 49.68, 507.72 -0.07 M314.95 222.89 C359.33 169.47, 404.64 119.23, 509.4 0.06 M321.78 221.5 C389.1 142.19, 458.88 63.51, 514.32 0.81 M320.43 222.67 C393.49 139.08, 465.6 56.61, 514.65 -0.04 M325.07 222.77 C373.24 166.18, 422.96 107.26, 519.39 -0.55 M326.7 222.15 C379.68 161.52, 433.45 98.88, 520.24 -0.8 M329.58 224.22 C396.36 148.58, 461.29 71, 525.23 -0.8 M331.5 223.55 C393.54 149.06, 457.34 74.89, 524.13 0.74 M336.11 221.01 C401.26 150.05, 464.38 76.03, 529.7 -0.11 M336.93 222.54 C394.93 154.17, 454.59 86.61, 530.8 -0.38 M340.99 223.41 C392.69 161.85, 445.53 104.52, 535.12 0.09 M342.25 222.92 C407.56 147.24, 472.47 71.14, 535.17 0.52 M346.55 223.3 C408.5 151.05, 468.41 80.99, 541.03 -0.85 M347.24 222.8 C397.21 165.43, 446.24 109.08, 540.83 -0.51 M352.27 223.07 C402.14 165.28, 453.03 105.35, 547.2 -0.58 M352.51 223.29 C419.29 148.04, 485.65 70.79, 545.43 0.11 M356.46 222.82 C414.95 158.09, 471.29 91.93, 552.28 -0.63 M358.35 222.15 C418.46 149.98, 480.03 80.08, 551.47 -0.34 M362.14 222.58 C423.94 150.07, 488.42 79.62, 556.79 -1.18 M363.51 222.46 C411.31 167.18, 460 110.38, 556.16 0.8 M369.86 221.39 C434 146.07, 501.08 72.61, 561.84 0.96 M368.61 221.8 C439.27 141.6, 509.29 60.34, 562.23 -0.74 M374.73 222.52 C440.8 147.99, 507.04 71.58, 566.11 -0.27 M373.38 222.43 C438.35 147.2, 503.79 72.69, 567.76 -0.07 M379.9 223.58 C437.37 155.38, 495.05 89.85, 573.52 -0.34 M378.53 221.95 C440.17 151.01, 502.24 79.55, 572.52 0.13 M384.77 221.78 C439.43 160.16, 494.94 95.3, 578.34 0.33 M384.58 221.99 C429.45 169.96, 476.07 117.29, 578.27 -0.24 M389.56 221.85 C432.37 173.98, 474.93 124.61, 584.04 -0.86 M389.22 221.81 C462.26 136.08, 536.59 50.51, 582.47 0.15 M395.37 223.47 C435.3 174.93, 475.85 125.91, 588.74 -1.36 M395.02 222.61 C461.72 143.53, 531.4 64.72, 587.85 0.08 M399.86 223.28 C462.41 151.17, 524.24 79.18, 594.53 -0.91 M400.93 222.56 C441.57 174.43, 484.64 126, 594.04 0.63 M406.19 223.05 C457.47 161.66, 510.84 102.24, 599.48 1.28 M405.46 222.57 C457.8 165.54, 507.63 107.12, 598.79 -0.33 M409.16 223.58 C451.48 177, 492.34 129.25, 603.66 -0.23 M410.91 223.64 C478.07 144.26, 545.51 66.98, 604.16 0.43 M416.34 223.15 C466.86 163.15, 521.36 102.36, 610.73 -0.15 M416.52 222.85 C471.86 156.97, 527.55 91.77, 609.52 -0.71 M421.72 221.92 C475.71 159.63, 530.37 96.27, 613.2 -1.05 M420.51 222.73 C493.47 139.89, 566.08 56.15, 614.74 0.36 M427.43 221.74 C492.53 149.96, 556.5 73.28, 620.69 0.54 M427.25 222.68 C492.73 145.07, 559.32 68.15, 620.6 0.2 M431.92 222.46 C491.87 151.62, 553.15 80.83, 624.41 1.57 M431.2 223.22 C497.78 148.15, 565.24 71.39, 624.61 -0.5 M437.55 220.99 C483.88 165.8, 534.97 109.83, 631.45 0.4 M438.05 222.55 C490.45 159.99, 546.39 97.08, 630.25 -0.33 M441.7 222.45 C491.92 166.76, 541.69 105.48, 635.09 -0.97 M442.76 222.3 C516.15 136.68, 591.86 50.23, 635.44 -0.36 M447.29 221.38 C505.37 155.5, 565.02 89.79, 640.2 -0.78 M447.73 222.65 C516.41 145.72, 583.6 68.07, 641.76 -0.08 M453.96 221.85 C507.17 160.35, 559.51 100.6, 645.48 -1.22 M452.66 222.1 C509.2 157.98, 566.25 91.75, 645.84 0.84 M459.66 221.63 C506.06 169.72, 550.08 115.97, 651 -0.46 M457.94 222.96 C523.17 146.71, 588.08 73.02, 651.62 -0.79 M463.68 223.38 C521.04 162.04, 575.98 96.69, 658.27 0.65 M463.41 222.26 C527.76 150.91, 589.85 79.98, 657.25 -0.07 M468.28 221.76 C529.31 151.35, 592.02 80.03, 662.95 0.66 M468.75 221.69 C510.06 178.82, 549.12 133.16, 662.9 -0.75 M472.77 223.58 C549 133.95, 626.78 46.85, 666.75 -0.25 M473.72 222.93 C548.23 136.28, 624.14 50.1, 668.04 -0.59 M481.09 223.02 C530.79 161.03, 582.96 101.76, 673.17 -1.27 M480.09 222.75 C534.22 158.63, 589.74 94.23, 673.34 -0.73 M484.07 221.74 C545.31 151.48, 607.39 81.77, 678.55 1.37 M484.4 223.22 C540.58 159.39, 594.54 96.91, 677.95 0.06 M490.68 221.97 C550.56 151.57, 609.47 83.76, 682.71 -1.45 M490.3 222.36 C542.12 160.82, 595.85 100.56, 684.3 -1.01 M495.49 222.83 C558.23 147.97, 621.91 76.3, 688.9 0.19 M495.4 222.78 C544.11 164.77, 592.52 110.05, 689.55 -0.58 M501.02 222.37 C567.82 148.9, 631.76 73.51, 693.61 -1.27 M500.58 222.42 C545.09 169.6, 589.68 119.42, 694.77 0.08 M505.92 222.72 C562.26 158.15, 618.7 91.83, 698.46 1.02 M505.82 223.19 C547.9 174.83, 589.44 124.77, 699.38 -0.75 M512.56 223.29 C577.45 148.84, 640.3 74.3, 705.25 1.41 M512.02 221.63 C584.37 137.89, 657.44 53.91, 705.22 1.04 M518.16 222.94 C566.96 163.98, 618.39 106.27, 710.36 1.03 M516.86 222.09 C588.1 141.28, 658.89 59.13, 709.79 -0.46 M522.32 222.08 C594.79 142.12, 664.49 60.39, 714 0.27 M522.59 222.87 C583.22 152.51, 643.12 83.61, 715.72 0.04 M527.1 221.86 C582.56 159.83, 634.81 97.13, 721.25 -1.35 M527.38 222.03 C595.46 145.35, 661.87 68.54, 721.54 0.05 M532.06 224.05 C608.42 134.9, 682.77 46.1, 727.15 -0.05 M532.49 223.58 C608 135.49, 682.08 49.86, 726.49 0.98 M537.52 223.53 C606.76 143.39, 676.57 62.07, 730.28 -0.52 M538.37 223.11 C588.02 161.85, 640.53 100.56, 730.81 0.28 M542.03 221.61 C592.75 166.07, 640.9 109.32, 735.76 1.11 M542.29 223.13 C606.27 150.31, 668.58 77.74, 736.08 0.09 M549.21 222.87 C611.07 154.47, 668.12 87.38, 742 -1.47 M548.44 222.94 C609.5 149.77, 671.7 80.44, 742.58 -0.54 M552.99 222.56 C604.36 162.42, 656.84 102.74, 746.73 1.23 M553.41 222.92 C594.47 174.43, 636.41 126.47, 746.63 -0.01 M559.99 223.48 C619.36 153.29, 679.87 83.81, 751.56 0.92 M559.84 222.58 C622.93 145.81, 688.98 71.54, 752.8 -0.46 M562.86 223.34 C607.62 170.63, 654.85 118.41, 759.04 0.5 M564.88 223.32 C624.13 151.85, 684 82.95, 757.91 0.85 M568.63 222.77 C635.94 145.14, 704.67 65.54, 762.49 1.2 M569.46 222.08 C617 167.86, 663.66 114.91, 763.24 -0.73 M574.99 221.62 C621.5 165.62, 670.28 108.9, 769.67 -1.08 M574.11 222.97 C621.73 170.22, 667.19 116.7, 768.87 0.34 M580.83 220.92 C652.56 138.63, 724.2 55.08, 774.84 1.08 M580.8 222 C619.11 176.41, 657.84 131.34, 774.07 0.08 M586.28 222.26 C645.78 156.57, 701.38 91.2, 779.52 -0.81 M585.82 223.22 C657.85 138.93, 730.4 56.76, 779.06 -0.4 M591.39 223.79 C654.71 148.86, 718.32 77.47, 785.21 0.55 M590.53 221.91 C643.66 163.47, 695.37 103.81, 785.36 0.2 M596.11 222.49 C638.93 172.74, 681.24 123.69, 790.49 0.82 M595.7 222.2 C648.92 162.89, 700.15 102.25, 790.15 0.23 M602 222.17 C666.95 147.15, 731.19 71.43, 795.6 0.87 M601.9 221.82 C667.8 144.19, 736.1 66.12, 795.55 -0.93 M606.29 223.75 C678.82 138.33, 751.61 53.34, 799.51 0.13 M606.77 222.23 C652.84 167.3, 700.81 113.29, 799.99 -0.1 M612.39 221.46 C675.09 152.49, 736.94 78.77, 804.53 -1.4 M612.84 222.28 C654.2 175.25, 695.68 127.25, 805.97 0.34 M618.13 222.79 C691.5 136.84, 765.42 53.15, 810.41 -0.87 M617.44 222.42 C690.64 137.87, 764.84 53.05, 811.49 -0.3 M623.24 220.89 C691.23 143.32, 761.03 61.48, 815.31 1.23 M623.41 222.82 C681.42 154.13, 740.97 86.76, 815.66 0.74 M629.46 223.54 C696.97 141.26, 764.81 61.45, 822.07 -0.4 M627.53 223.1 C692.54 147.78, 756.52 75.51, 822.28 -0.24 M633.23 222.45 C701.69 145.19, 769.53 68.4, 826.75 0.38 M634.27 221.96 C697.68 150.07, 761.73 76.6, 827.02 0.41 M637.61 222.3 C696.75 155.86, 755.45 86.95, 831.38 0.14 M638.21 222.85 C697.16 158.25, 754.29 93.13, 832.06 0.66 M644.35 222.68 C708.55 146.87, 775 72.62, 838.16 0.09 M643.1 222.46 C693.67 165.86, 743.49 108.71, 837.38 0.01 M648.29 222.55 C704.24 157.5, 760.89 93.65, 842.12 -0.9 M649.05 222.99 C699.13 164.92, 750.95 107.12, 842.67 0.53 M655.57 221.59 C731.62 138.87, 805.78 51.45, 849 -1.03 M654.62 222.3 C716.73 152.41, 778.62 80.84, 847.59 0.7 M660.78 223.07 C714.67 160.56, 768.55 95.45, 853.13 0.52 M659.5 223.08 C732.14 139.07, 803.71 55.27, 853.61 -0.55 M664.88 224.16 C725.61 149.44, 788.52 77.56, 858.22 -0.14 M664.78 222.25 C709.28 171.23, 754.01 118.84, 858.37 0.39 M670.86 223.92 C735.86 145.86, 802.21 70.25, 864.2 -0.65 M670.38 222.42 C735.78 145.27, 802.78 69.07, 863.49 -0.52 M674.88 222.54 C744.9 144.08, 816.21 62.18, 870.19 0.9 M675.29 222.77 C741.35 143.97, 810.57 67.42, 868.87 -0.29 M679.76 223.42 C757.11 134.64, 834.35 45.75, 876.12 -0.85 M680.92 223.05 C729.23 169.17, 776.09 114.5, 874.55 0.2 M686.14 223.48 C747.92 151.78, 810.01 82.96, 879.86 1.48 M685.48 223.37 C746.07 154.77, 806.45 84.67, 879.57 0.52 M691.14 221.16 C741.25 165.12, 793.07 105.77, 884.71 0.34 M691.71 222.28 C751.56 153.29, 813.15 82.71, 885.2 0.18 M697.28 221.61 C767.26 142.17, 835.1 65.23, 890.58 -0.72 M696.82 222.51 C738.78 174, 780.28 125.35, 890.85 -0.03 M702.25 220.93 C748.39 167.72, 795.99 111.03, 895.64 0.1 M701.74 223.1 C772.03 142.13, 842.94 59.84, 895.92 -0.01 M707.86 223.22 C758.75 165.65, 806.9 109.05, 902.24 -0.83 M706.95 222.15 C752.41 169.38, 797.31 118.77, 901.51 -0.57 M712.76 221.86 C778.13 145.94, 843.6 73.08, 906.7 -1.63 M712.85 222.33 C786.06 139.98, 857.83 57.19, 906.39 -0.84 M718.42 222.5 C794 136.75, 865.27 53, 911.22 1.34 M718.57 223.23 C792.23 137.37, 866.86 50.7, 911.69 -0.02 M724.83 221.35 C803.58 135, 880.1 44.53, 916.61 0.77 M723.8 222.44 C777.21 162.6, 827.98 102.92, 916.87 -0.77 M727.53 222.29 C777.26 166.23, 826.34 109, 922.31 1.29 M729.09 222.73 C800.75 140.33, 873.01 56.87, 922.91 -0.5 M734.14 221.02 C811.8 133.69, 890.35 45.08, 928.05 0.84 M734.72 222.71 C802 142.49, 870.97 62.79, 928.28 -0.75 M740.63 222.23 C780.84 175.5, 821.62 129.45, 933.86 -1.26 M739.51 222.57 C807.44 143.09, 876.18 63.7, 932.13 0.05 M744.81 220.78 C814.71 139.89, 886.82 58.7, 938.09 1.53 M745.62 222.14 C804.93 153.09, 864.18 84.2, 938.51 0.97 M749.33 221.77 C819.15 145.77, 890.46 64.19, 943.69 0.6 M749.96 222.19 C820.67 143.45, 890.45 62.68, 943.58 0.49 M754.46 221.78 C800.27 167.61, 846.82 114.72, 949.69 0.34 M754.91 222.46 C828.38 142.26, 898.13 60.18, 948.06 -0.05 M761.04 223.03 C832.2 136.11, 906.95 52.71, 955.08 0.18 M761.21 222.99 C816.71 160.83, 872.48 96.11, 954 -0.6 M765.53 224.23 C806.24 174.83, 850.2 125.6, 958.9 -0.24 M766.17 222.92 C827.5 152.21, 891.03 81.77, 959.08 0.4 M772.26 222.03 C841.37 143.4, 911.33 61.53, 964.82 0.97 M771.69 222.43 C826 159.92, 880.83 97.61, 964.44 -0.42 M775.94 224.34 C850.23 137.38, 926.89 48.79, 969.32 1.3 M775.92 223.22 C843.14 146.2, 908.75 69.26, 969.01 0.35 M780.48 223.41 C852.2 144.68, 920.53 63.07, 975.16 -1.2 M781.92 222.88 C855.58 137.23, 929.86 51.42, 975.83 -0.9 M787.1 221.84 C854.62 144.7, 922.58 65.3, 979.59 0.29 M787.51 223.58 C856.58 141.79, 927.12 61.18, 980.42 -0.19 M793.06 222.7 C837.79 173.66, 878.8 124.01, 984.86 -0.36 M793.07 222.76 C845.47 160.9, 898.46 100.45, 986.04 0.25 M797.58 222.9 C862.55 148.1, 931.31 70.52, 991.66 1.5 M797.39 223.24 C852.68 160.82, 905.81 98.81, 989.89 1.48 M803.51 221.11 C872.6 139.47, 944.14 60.41, 989.2 5.62 M802.45 222.46 C860.19 157.51, 917.79 91.8, 991.35 5.89 M808.43 223.09 C867.95 152.14, 929.57 82.19, 990.99 13.36 M807.84 222.62 C873.77 148.25, 939.15 74.13, 990.56 12.42 M812.13 222.68 C855.17 174.73, 893.34 127.81, 989.6 18.57 M814.01 222.88 C867.44 159.27, 921.53 97.05, 990.01 20.08 M820.23 222.08 C878.63 155.69, 937.61 87.84, 992.02 25.08 M818.04 223.47 C855.21 177.11, 895.13 133.11, 990.76 24.28 M823.47 222.11 C889.59 146.08, 955.69 72.23, 989.1 32.69 M824.82 222.34 C885.16 154.89, 944.35 85.72, 989.9 31.45 M829.8 224.18 C875.48 170.34, 920.9 116.19, 991.16 37.04 M828.61 222.58 C874.96 170.91, 918.76 120.02, 991.11 37.65 M833.76 223.12 C873.08 180.39, 911.19 137.57, 989.89 44.6 M835.57 222.82 C869.12 183.79, 902.03 145.12, 990.85 43.65 M839.75 222.11 C895.13 162.62, 948.42 99.49, 991.57 50.14 M840.08 222.81 C879.05 174.82, 919.6 129.6, 990.67 49.42 M846.79 222.75 C894.33 165.49, 946.68 105.55, 991.12 54.49 M846.06 221.97 C888.72 171.21, 932.04 121.02, 989.77 56.19 M848.91 223.13 C888.06 182.93, 924.8 141.02, 989.54 62.79 M851.2 221.83 C898.23 168.61, 944.89 115.74, 991.18 61.3 M857.27 220.96 C891.52 181.79, 926.41 140.36, 991.24 67.69 M856.83 223.05 C893.6 178.75, 933.21 133.5, 990.19 68.22 M862.78 222.48 C905.55 170.31, 951.57 121.6, 990.82 75.49 M860.3 222.11 C906.26 170.76, 952.93 118.6, 989.51 74.74 M867.92 221 C902.52 176.32, 942.45 134.91, 990.93 81.59 M867.47 223.05 C906.55 173.16, 947.25 125.56, 989.75 81.12 M871.26 224 C902.42 183.97, 934.58 147.65, 988.65 87.11 M871.28 222.53 C917.73 168.03, 966.22 114.01, 989.59 85.15 M878.29 223.61 C900.83 195.31, 926.46 162.59, 992.23 92.02 M877.48 223.51 C904.2 191.57, 932.86 157.71, 989.67 91.56 M882.7 221.56 C924.28 174.02, 965.44 128.53, 988.9 96.71 M882.21 223.18 C912.37 186.76, 943.79 152.33, 990.55 98.34 M887.56 222.31 C920.05 184.59, 950.62 148.71, 990.7 102.99 M887.41 222.79 C922.09 184.29, 953.49 147.76, 990.93 104.36 M893.01 222.66 C920.69 191.15, 949.42 157.19, 990.22 111.62 M892.91 221.92 C932.06 178.77, 970.24 134.46, 989.63 111.63 M898.14 224.68 C919.8 196.44, 942.18 170.48, 989.77 115.46 M898.6 222.07 C923.78 192.88, 951.15 161.29, 991.09 117.15 M905.38 220.49 C929.85 191.99, 954.52 162.92, 990.52 124.62 M903.07 222.24 C928.79 195.18, 955.04 165.18, 990.84 122.72 M910.37 221.25 C934.02 193.08, 961.54 163.15, 992.23 128.05 M907.89 222.45 C938.95 189.46, 967.65 155.46, 991.53 129.23 M914.33 221.93 C931.2 205.57, 947.13 186.24, 991.08 134.43 M914.19 223.32 C937.04 197.57, 959.64 172.67, 991.1 134.23 M917.93 222.24 C945.42 193.29, 970.41 164.17, 991.48 141.81 M918.96 223.66 C935.32 204.97, 950.53 185.63, 990.83 142.28 M925.68 223.52 C945.35 199.29, 965.57 177.16, 991.14 146.7 M925.64 221.97 C941.98 201.32, 959.48 181.92, 990.81 146.69 M931.8 221.57 C944.49 205.97, 958.06 188.42, 990.25 153.24 M930.36 222.1 C942.98 207.01, 957.35 192.01, 989.39 153.41 M936.59 223.53 C952.91 202.25, 970.24 183.28, 991.23 158.77 M936.61 222.68 C951.52 203.48, 969.65 184.56, 991.22 159.27 M940.29 220.81 C961.12 200.85, 978.3 177.27, 988.57 166.78 M941.45 222.82 C957.74 203.11, 974.51 182.33, 991.46 165.62 M947.49 221.89 C957.31 208.8, 972.95 193.5, 988.56 172.44 M946.16 221.57 C963.1 202.74, 979.88 183.37, 989.77 172.57 M953 221.25 C965.48 204.24, 981.43 187.92, 990.46 175.81 M950.46 223.55 C961.51 208.78, 974.25 196.64, 989.81 176.83 M958.17 224.21 C971.8 208.47, 982.87 192.09, 991.62 182.91 M957.17 222.44 C965.86 210.16, 976.7 199.54, 990.7 183.56 M960.85 223.86 C967.25 213.58, 974.64 207.16, 991.25 191.38 M962.44 222.64 C972.93 208.85, 983.42 197.43, 991.05 188.62 M967.7 221.83 C973.77 217.87, 977.52 212.9, 992.24 195.34 M968.38 222.73 C977.54 211.66, 985.79 201.38, 991.15 196.16 M972.09 221.29 C978.75 215.49, 984.83 208.88, 988.92 203 M973.3 223.12 C977.72 218.29, 981.06 212.46, 990.98 202.96 M978.46 223.65 C979.36 219.92, 982.63 214.58, 992.13 209.72 M978.35 221.58 C983.38 217.47, 987.06 210.25, 989.77 208.16 M983.75 222.2 C984.61 220.52, 987.12 217.99, 990.57 215.01 M983.49 222.63 C985.06 219.34, 988 216.47, 990.82 214.8" stroke="#868e96" stroke-width="0.5" fill="none"/><path d="M0.67 -0.27 C222.72 1.5, 445.75 2.69, 989.85 0.2 M0.19 0.22 C369.89 -1.56, 739.4 -1.22, 989.47 0.17 M988.89 0.54 C988.55 73.01, 988.52 145.63, 990.28 221.27 M989.12 -0.77 C987.68 86.09, 988.8 171.56, 989.86 219.98 M989.47 220.7 C691 221.7, 393.92 220.72, 0.16 220.89 M989.33 220.16 C672.29 219.33, 355.36 219.11, 0.36 220.42 M0.05 221.42 C-1.75 170.82, -1.44 125.23, -0.1 -0.59 M-0.15 220.96 C-0.1 165.32, -0.88 110.12, -0.12 -0.18" stroke="#000000" stroke-width="1" fill="none"/></g><g stroke-linecap="round" transform="translate(502.81805419921875 125.49703979492188) rotate(0 95.3760986328125 206.5675048828125)"><path d="M0.62 -1.96 L191.55 -0.42 L190.64 412.12 L1.06 413.05" stroke="none" stroke-width="0" fill="#868e96"/><path d="M-1.6 0.84 C69.69 1.05, 138.63 2.41, 192.28 -0.35 M-0.27 0.95 C72.03 -1.39, 145.18 -1.04, 191.7 -0.28 M189.67 -0.57 C193.03 126.09, 191.5 252.84, 190 412.63 M190.74 0.2 C191.19 117.54, 191.7 234.85, 190.75 413.56 M189.64 414.79 C125.41 413.47, 57.3 414.91, -1.53 414.64 M190.31 412.18 C114.12 413.58, 39.74 412.3, 0.9 412.33 M-0.37 412.46 C-1.13 306.74, -1.18 199.79, -0.08 -0.77 M0.49 412.69 C-0.31 270.14, -0.21 127.66, -0.51 0.28" stroke="#000000" stroke-width="1" fill="none"/></g><g transform="translate(376.05780029296875 11.801361083984375) rotate(0 164.01727294921875 332.0825958251953)" stroke="none"><path fill="#000000" d="M 1.19,1.07 Q 1.19,1.07 0.21,2.26 -0.76,3.46 -3.27,7.00 -5.79,10.54 -9.53,16.78 -13.26,23.02 -16.84,30.06 -20.42,37.10 -23.35,44.52 -26.29,51.93 -28.70,60.54 -31.11,69.16 -32.45,79.80 -33.80,90.44 -34.25,102.31 -34.70,114.17 -33.19,125.79 -31.69,137.42 -24.13,151.41 -16.57,165.41 -3.76,179.56 9.04,193.71 25.28,206.00 41.51,218.30 61.91,230.53 82.31,242.77 104.00,253.82 125.69,264.88 144.79,273.54 163.89,282.19 179.50,288.91 195.10,295.62 208.79,301.69 222.47,307.76 234.11,313.41 245.74,319.06 255.10,324.18 264.46,329.30 271.71,333.90 278.95,338.50 285.73,344.91 292.50,351.32 296.22,356.83 299.93,362.34 301.85,369.33 303.77,376.32 304.15,386.19 304.54,396.07 302.90,408.31 301.26,420.55 297.42,435.39 293.57,450.23 288.30,467.44 283.04,484.64 278.15,499.93 273.27,515.22 269.46,527.96 265.64,540.70 262.80,552.34 259.97,563.97 258.27,574.21 256.58,584.45 255.73,592.96 254.88,601.46 255.40,607.78 255.93,614.10 258.38,619.69 260.83,625.27 264.88,630.39 268.93,635.51 274.17,639.81 279.42,644.11 286.18,647.70 292.95,651.29 300.66,654.13 308.37,656.97 315.72,658.88 323.07,660.79 329.11,661.88 335.15,662.97 339.59,663.45 344.03,663.94 347.74,664.14 351.46,664.34 354.41,664.43 357.35,664.52 359.22,664.50 361.09,664.48 362.78,664.42 364.47,664.35 364.72,664.39 364.98,664.44 365.21,664.56 365.43,664.69 365.61,664.88 365.78,665.07 365.89,665.31 366.00,665.54 366.02,665.80 366.04,666.06 365.99,666.31 365.93,666.56 365.79,666.78 365.65,667.01 365.45,667.17 365.25,667.34 365.01,667.43 364.77,667.52 364.51,667.53 364.25,667.54 364.00,667.47 363.75,667.40 363.54,667.25 363.33,667.10 363.17,666.89 363.02,666.68 362.94,666.44 362.86,666.19 362.86,665.93 362.87,665.67 362.95,665.43 363.04,665.18 363.20,664.98 363.36,664.77 363.58,664.63 363.79,664.49 364.04,664.42 364.29,664.36 364.55,664.37 364.81,664.39 365.05,664.49 365.29,664.59 365.49,664.76 365.68,664.93 365.81,665.15 365.94,665.38 365.99,665.63 366.05,665.89 366.02,666.14 365.98,666.40 365.87,666.64 365.76,666.87 365.58,667.05 365.40,667.24 365.17,667.36 364.94,667.48 364.68,667.52 364.42,667.55 364.42,667.55 364.42,667.55 362.73,667.44 361.03,667.33 359.15,667.24 357.28,667.14 354.30,667.06 351.32,666.97 347.53,666.76 343.75,666.55 339.22,666.05 334.69,665.56 328.55,664.45 322.40,663.33 314.93,661.39 307.46,659.44 299.58,656.52 291.71,653.61 284.74,649.88 277.76,646.14 272.31,641.64 266.87,637.14 262.65,631.74 258.44,626.33 255.88,620.35 253.32,614.36 252.79,607.78 252.26,601.20 253.12,592.61 253.99,584.02 255.70,573.69 257.41,563.35 260.27,551.65 263.13,539.95 266.95,527.18 270.77,514.42 275.65,499.14 280.53,483.87 285.78,466.72 291.03,449.57 294.84,434.89 298.66,420.20 300.29,408.18 301.91,396.16 301.57,386.57 301.23,376.99 299.48,370.37 297.73,363.76 294.21,358.49 290.68,353.22 284.11,346.96 277.54,340.71 270.37,336.16 263.20,331.60 253.90,326.51 244.59,321.42 233.00,315.80 221.40,310.17 207.73,304.10 194.06,298.04 178.43,291.32 162.80,284.59 143.64,275.91 124.49,267.23 102.72,256.13 80.95,245.03 60.43,232.72 39.91,220.41 23.49,207.96 7.07,195.50 -5.92,181.10 -18.92,166.69 -26.63,152.26 -34.35,137.82 -35.88,125.95 -37.41,114.08 -36.97,102.09 -36.53,90.10 -35.17,79.25 -33.81,68.41 -31.39,59.64 -28.96,50.88 -26.01,43.33 -23.07,35.77 -19.49,28.61 -15.92,21.45 -12.19,15.06 -8.47,8.68 -5.92,4.90 -3.36,1.12 -2.27,0.02 -1.19,-1.07 -1.04,-1.20 -0.90,-1.32 -0.72,-1.41 -0.55,-1.50 -0.36,-1.54 -0.17,-1.59 0.01,-1.59 0.20,-1.59 0.39,-1.54 0.58,-1.49 0.75,-1.40 0.92,-1.31 1.06,-1.18 1.20,-1.05 1.31,-0.89 1.42,-0.73 1.49,-0.55 1.56,-0.37 1.58,-0.17 1.60,0.01 1.57,0.20 1.55,0.39 1.48,0.57 1.41,0.75 1.30,0.91 1.19,1.07 1.19,1.07 L 1.19,1.07 Z"/></g><g stroke-linecap="round" transform="translate(630.4854125976562 153.90463256835938) rotate(0 95.87652587890625 92.8994140625)"><path d="M0.38 -1.21 L192.27 1.87 L190.53 187.61 L0.89 187.07" stroke="none" stroke-width="0" fill="#7950f2"/><path d="M-0.98 -0.02 C58.46 -1.09, 111.98 -1.03, 193.04 -1.3 M-0.82 -0.23 C67.04 -1.89, 132.94 -2.18, 191 -0.2 M193.4 0.2 C192.18 47.79, 190.22 93.21, 191.54 185.78 M192.06 0.65 C193.79 64.98, 193.45 131.74, 191.16 185 M192.35 184.72 C117.48 187.08, 43.69 185.38, -0.33 184.21 M192.19 185.75 C128.24 183.47, 62.97 184.31, 0.76 184.82 M-0.56 185.73 C-0.57 147.54, 0.15 111.6, 0.15 -1.51 M0.06 185.45 C-1.15 137.67, -1.48 90.15, 0.22 0.17" stroke="#000000" stroke-width="1" fill="none"/></g><g stroke-linecap="round" transform="translate(724.6983032226562 185.91610717773438) rotate(0 95.01080322265625 59.225433349609375)"><path d="M1.07 1.58 L188.33 -0.02 L189.28 119.08 L1.83 119.35" stroke="none" stroke-width="0" fill="#fa5252"/><path d="M-0.1 1.28 C50.76 0.3, 101.05 -1.24, 190.54 1.87 M0.63 -0.5 C45.73 -1.69, 91.56 -1.02, 190.96 -0.89 M188.76 -0.28 C186.96 33.77, 187.56 67.64, 188.53 117.21 M190.98 -0.19 C189.02 45.18, 189.68 90.71, 190.22 118.84 M188.96 116.79 C123.55 119.16, 54.75 115.73, -1.08 117.77 M189.33 118 C132.78 117.47, 76.34 118.32, 0.03 119.43 M-1.54 119.25 C1.26 72.9, -0.87 30.72, 1.4 -1.76 M0.31 118.3 C0.64 72.46, 0.94 24.98, -0.5 -0.26" stroke="#000000" stroke-width="1" fill="none"/></g><g stroke-linecap="round" transform="translate(832.8978881835938 208.41677856445312) rotate(0 85.4202880859375 30.49676513671875)"><path d="M0.65 0.15 L171.86 1.79 L172.27 59.19 L1.89 62.57" stroke="none" stroke-width="0" fill="#228be6"/><path d="M-1.26 -0.28 C47.46 -0.82, 97.4 -1.17, 169.35 -1.24 M0.96 -0.19 C64.76 -0.3, 130.24 0.29, 171.04 0.39 M169.78 -1.67 C171.93 23.09, 170.31 41.22, 169.76 60.32 M170.14 -0.45 C170.91 17.67, 171.26 36.76, 170.87 61.98 M169.3 61.79 C107.73 59.04, 41.61 61.23, 1.4 59.23 M171.16 60.84 C103.75 61.72, 36.44 61.11, -0.5 60.74 M-0.02 60.25 C0.15 41.28, 0.42 18.62, 0.2 -1.24 M0.3 61.05 C1.11 46.13, 1.11 32.51, -0.59 0.68" stroke="#000000" stroke-width="1" fill="none"/></g><g stroke-opacity="0.5" fill-opacity="0.5" stroke-linecap="round" transform="translate(128.19354248046875 223.89511108398438) rotate(0 107.5223388671875 196.82373046875)"><path d="M-1.26 0.48 L213.13 -1.92 L215.27 395.52 L0.62 394.48" stroke="none" stroke-width="0" fill="#e64980"/><path d="M-1.03 -1.09 C48.85 0.4, 94.38 0.85, 214.84 -0.15 M0.77 0.7 C71.51 -1.39, 142.33 -0.48, 215.74 -0.74 M216.1 0.52 C214.62 117.82, 213.49 234.61, 214.07 393.35 M214.57 0.34 C214.93 129.61, 215.57 260.09, 215.09 393.94 M216.7 395.03 C131.52 391.14, 47.32 391.38, 0.29 392.99 M215.87 392.87 C132.73 392.49, 51.86 393.07, 0.51 393.99 M-0.91 393.97 C-1.81 261.28, -2.4 130.2, 0.58 0.86 M0.15 393.86 C1.61 269.53, 1.07 145.13, -0.17 -0.11" stroke="#000000" stroke-width="1" fill="none"/></g><g stroke-opacity="0.5" fill-opacity="0.5" stroke-linecap="round" transform="translate(10 493.3944396972656) rotate(0 212.94705200195312 177.23443603515625)"><path d="M-1.87 0.29 L426.86 0.07 L426.4 355.85 L-0.02 355.85" stroke="none" stroke-width="0" fill="#fd7e14"/><path d="M-0.47 -0.86 C151.87 -1.5, 305.9 -1.21, 426.84 0.03 M0.03 0.02 C155.93 1.82, 311.62 1.02, 426 -0.22 M425.62 0.63 C425.01 115.81, 426.24 232.21, 425.78 353.72 M425.6 -0.49 C424.99 138.41, 425.33 276.18, 425.9 354.24 M425.45 353.45 C289.7 356.47, 154.6 354.91, 0.79 354.05 M425.76 354.35 C327.61 354.6, 229.83 354.46, 0.51 354.88 M0.59 355.69 C1.53 261.89, 1.44 170.22, 1.02 -1.17 M-0.37 354.06 C-0.38 272.32, 0.68 191.59, 0.18 -0.22" stroke="#000000" stroke-width="1" fill="none"/></g><g stroke-opacity="0.5" fill-opacity="0.5" stroke-linecap="round" transform="translate(244.87176513671875 380.5061950683594) rotate(0 155.78448486328125 155.78448486328125)"><path d="M98.8 11.23 C112.18 3.32, 131.69 0.78, 147.77 -0.4 C163.85 -1.58, 179.86 0.05, 195.27 4.16 C210.68 8.27, 226.85 15.57, 240.22 24.27 C253.59 32.97, 265.25 43.77, 275.5 56.35 C285.75 68.94, 295.83 84.69, 301.71 99.77 C307.59 114.85, 310.14 130.97, 310.79 146.82 C311.44 162.66, 309.51 179.25, 305.6 194.84 C301.69 210.42, 295.81 226.61, 287.34 240.33 C278.87 254.05, 267.44 267.1, 254.78 277.14 C242.13 287.17, 226.48 294.84, 211.42 300.53 C196.37 306.22, 180.41 310.45, 164.47 311.28 C148.52 312.11, 131.4 309.64, 115.75 305.53 C100.11 301.42, 84.11 295.09, 70.59 286.63 C57.07 278.16, 44.6 267.12, 34.62 254.75 C24.64 242.38, 16.5 227.56, 10.71 212.39 C4.92 197.23, 0.94 179.82, -0.11 163.77 C-1.15 147.72, 0.24 131.58, 4.45 116.07 C8.66 100.56, 16.46 84.3, 25.15 70.71 C33.84 57.12, 43.69 44.7, 56.58 34.53 C69.46 24.36, 94.02 13.67, 102.46 9.68 C110.9 5.69, 106.34 8.34, 107.23 10.57 M189.1 4.58 C204.73 5.13, 221.59 12.97, 235.57 20.92 C249.55 28.87, 262.68 40.07, 272.98 52.27 C283.29 64.46, 291.14 79.23, 297.39 94.11 C303.64 108.99, 308.82 125.79, 310.47 141.54 C312.12 157.29, 310.55 173.24, 307.31 188.62 C304.08 203.99, 299.38 219.67, 291.07 233.79 C282.77 247.92, 269.62 262.68, 257.47 273.35 C245.32 284.01, 232.74 291.32, 218.15 297.78 C203.56 304.25, 186.13 310.4, 169.92 312.15 C153.71 313.91, 136.29 311.84, 120.89 308.3 C105.48 304.76, 91.38 299.22, 77.52 290.92 C63.66 282.63, 48.33 270.81, 37.74 258.52 C27.16 246.23, 20.38 231.89, 14.01 217.19 C7.63 202.48, 1.27 185.98, -0.51 170.3 C-2.29 154.61, -0.1 138.44, 3.34 123.07 C6.78 107.7, 11.78 91.96, 20.12 78.08 C28.45 64.19, 41 50.62, 53.35 39.77 C65.69 28.92, 79.37 19.35, 94.21 12.98 C109.05 6.62, 126.27 3.05, 142.4 1.57 C158.54 0.09, 183.16 3.22, 191.02 4.11 C198.87 5, 190.11 4.67, 189.55 6.91" stroke="none" stroke-width="0" fill="#12b886"/><path d="M102.07 8.71 C115.45 1.12, 133.54 -0.35, 149.84 -0.67 C166.14 -0.99, 184.29 2.27, 199.86 6.78 C215.44 11.29, 230.33 17.48, 243.31 26.38 C256.28 35.27, 267.8 47.42, 277.7 60.14 C287.61 72.86, 297.04 87.51, 302.71 102.68 C308.38 117.86, 311.27 135.05, 311.73 151.19 C312.2 167.34, 309.88 184.34, 305.48 199.56 C301.09 214.78, 294.49 229.48, 285.36 242.51 C276.24 255.54, 263.63 267.81, 250.75 277.74 C237.87 287.66, 222.89 296.44, 208.07 302.05 C193.25 307.65, 177.59 310.93, 161.82 311.37 C146.06 311.8, 129.07 308.94, 113.49 304.66 C97.91 300.38, 81.87 294.69, 68.35 285.7 C54.83 276.7, 42.25 263.35, 32.37 250.7 C22.49 238.06, 14.38 224.86, 9.07 209.84 C3.76 194.81, 0.96 176.71, 0.5 160.56 C0.05 144.4, 1.91 128.2, 6.35 112.89 C10.78 97.59, 18.25 82.04, 27.12 68.71 C35.98 55.37, 46.52 43.08, 59.53 32.88 C72.55 22.67, 96.82 11.16, 105.22 7.47 C113.62 3.78, 108.85 7.99, 109.91 10.73 M181.75 1.93 C197.25 2.48, 213.86 11.79, 228.15 19.26 C242.44 26.73, 256.46 35.71, 267.48 46.74 C278.5 57.78, 287.01 70.98, 294.27 85.46 C301.53 99.94, 308.4 117.38, 311.04 133.62 C313.69 149.85, 312.92 166.85, 310.16 182.88 C307.39 198.91, 302.02 215.91, 294.46 229.81 C286.9 243.7, 276.31 255.09, 264.82 266.25 C253.32 277.42, 240.06 289.33, 225.49 296.82 C210.92 304.3, 193.44 308.93, 177.4 311.17 C161.36 313.41, 144.71 313.21, 129.25 310.26 C113.79 307.32, 98.83 301.27, 84.64 293.5 C70.45 285.73, 55.52 274.95, 44.12 263.65 C32.73 252.34, 23.32 239.7, 16.28 225.66 C9.25 211.62, 4.25 195.31, 1.9 179.39 C-0.44 163.48, -0.52 146.02, 2.22 130.17 C4.95 114.32, 10.74 98.56, 18.32 84.3 C25.89 70.04, 36.25 56.17, 47.68 44.61 C59.1 33.06, 72.41 22.09, 86.84 14.95 C101.27 7.81, 118.53 4.11, 134.23 1.76 C149.94 -0.59, 173 0.38, 181.07 0.84 C189.14 1.3, 182.84 1.96, 182.66 4.51" stroke="#000000" stroke-width="1" fill="none"/></g><g stroke-linecap="round" transform="translate(216.63104248046875 443.2894592285156) rotate(0 63.0469970703125 252.249267578125)"><path d="M64.01 -0.01 C64.01 -0.01, 64.01 -0.01, 64.01 -0.01 M64.01 -0.01 C64.01 -0.01, 64.01 -0.01, 64.01 -0.01 M62.2 8.71 C63.27 6.59, 63.68 6.59, 65.51 4.9 M62.18 8.23 C63.23 7.6, 63.62 6.22, 64.6 4.77 M60.73 17.29 C60.4 13.26, 65.06 12.17, 67.34 10.71 M59.67 18.02 C60.95 14.98, 64.88 12.13, 66.44 10.5 M58.41 24.04 C59.72 23.2, 64.3 21.27, 68.95 15.07 M56.04 27.51 C60.35 20.68, 66.6 17.64, 68.76 13.46 M55.35 34.34 C56.75 26.43, 61.95 25.74, 70.12 19.79 M53.54 33.37 C58.21 30.48, 66.58 21.35, 68.96 17.93 M49.42 39.92 C56.87 36.37, 65.08 34.58, 70.6 21.88 M54.61 44.26 C57.39 39.39, 62.01 34.26, 68.46 24.17 M48.56 52.03 C53.2 46.73, 54.57 44.93, 71.81 28.52 M50.13 50.99 C54.45 44.97, 58.53 42.78, 72.41 29.51 M45.5 60.87 C52.96 50.53, 58.42 47.7, 75.56 29.58 M48.69 59.7 C57.12 54.13, 60.7 44.61, 72.32 31.94 M45.67 67.88 C52.01 59.68, 64.12 45.79, 74.56 35.62 M48.52 70.37 C55.49 55.67, 68.92 43.75, 73.18 37.18 M45.39 78.91 C55.63 63.93, 62.75 55.04, 75.37 42.9 M44.29 75.43 C56.16 67.71, 62.19 54.34, 72.99 41.02 M43.47 89.07 C47.75 76.82, 61.52 64.06, 77.95 50.19 M43.39 85.89 C50.12 75.87, 56.75 70.02, 75.02 47.45 M40.15 95.66 C46.37 87.92, 51.88 75.94, 77.93 51.91 M41.42 93.72 C52.59 81.46, 64.28 65.88, 78.6 51.33 M35.33 103.93 C43.43 94.98, 54.83 81.65, 78.19 54.99 M37.09 102.96 C51.02 86.51, 66.92 72.27, 79.4 56.42 M34.82 108.86 C46.24 94, 65.67 76.02, 79.76 59.79 M35.1 112.89 C42.15 101.04, 54.52 90.24, 80.92 61.85 M32.6 116.87 C49.87 105.84, 61.88 81.58, 80.1 65.89 M33 121.08 C42.13 109.08, 53.77 96.87, 81.43 65.21 M33.06 127.63 C48.83 103.42, 71.21 87.73, 79.98 69.08 M32.06 130.59 C43.42 116.41, 57.34 102.22, 81.43 72.89 M25.25 139.73 C53.42 114.36, 70.17 91.57, 79.12 78.13 M28.17 137.04 C51.3 112.7, 72.49 90.45, 83.94 74.27 M29.15 148.48 C41.78 128.31, 64.28 106.78, 86.36 84 M26.7 147.77 C41.22 128.81, 56 110, 85.31 80.31 M21.88 151.67 C37.41 140.33, 54.2 124.97, 83.33 84.6 M25.36 156.95 C40.85 137.94, 56.43 115.58, 83.45 85.64 M24.65 162.52 C41.68 142.18, 59.27 121.95, 87.3 89.83 M21.76 163.94 C44.35 138.4, 62.41 114.93, 85.39 91.02 M18.36 170.5 C34.16 147, 60.75 126.04, 86.1 94.54 M21.65 171.47 C44.73 143.94, 64.68 118.8, 86.8 93.63 M17.79 182.52 C40.12 150.24, 66.36 119.22, 89.78 103.28 M17.72 180.2 C43.94 146.7, 71.63 115.14, 88.22 101.27 M19.22 191.68 C38.51 167.15, 60.45 136.48, 92.76 107.57 M17.86 190.86 C39.82 161.97, 59.62 136.72, 89.91 102.9 M15.37 198.33 C32.88 170.27, 51.95 154.9, 93.48 110.64 M12.7 198.67 C31.57 179.81, 49.35 162.12, 92.05 110.85 M9.6 207.75 C40.09 173.74, 64.08 147.32, 93.26 116.44 M10.46 204.4 C29.82 188.48, 46.89 168.54, 90.32 115.13 M6.19 211.96 C30.76 184.94, 61.7 156.51, 94.63 119.36 M7.85 213.56 C33.31 184.9, 59.81 155.6, 94.76 118.62 M8.58 227.41 C25.84 194.35, 50.05 170.21, 92.15 125.27 M8.94 223.46 C34.76 187.67, 65.8 156.31, 93.3 123.36 M1.64 228.78 C32.83 206.32, 54.95 177.34, 92.12 128.25 M4.02 230.39 C36.07 194.61, 68.6 161.6, 95.97 128.75 M5.9 242.7 C32.87 212.45, 58.65 174.62, 98.67 135.82 M4.49 240.71 C38.62 197.57, 74.34 159.71, 97.8 134.15 M3.78 249.54 C23.91 223.94, 41.96 203.82, 101.47 137.73 M1.74 249.99 C33.58 207, 68.25 167.4, 98.98 136.99 M5.17 257.31 C35.44 220.77, 69.08 180.23, 98.61 142.95 M1.27 254.36 C35.65 217.39, 69.77 179.78, 100.45 143.15 M3.8 262.81 C29.36 226.37, 62.53 191.05, 102.83 145.38 M3.78 260.95 C38.67 214.74, 76.17 169.88, 98.76 146.12 M2.02 261.27 C32.76 227.61, 63.13 188.99, 100.43 152.91 M2.49 262.95 C37.63 227.43, 69.05 187.17, 101.57 153.32 M3.1 266.88 C44.56 227.39, 78.57 187.41, 102.94 156.13 M4.15 269.52 C43.76 226.5, 80.68 182.29, 103.96 156.26 M5.45 274.06 C43.72 234.84, 73.49 194.38, 101.22 161.58 M7.82 272.38 C32.12 242.72, 59.58 214.38, 103.19 161.17 M6.26 282.15 C36.13 236.48, 73.78 201.54, 101.2 168.53 M9.13 279.97 C37.44 244.45, 66.72 207.81, 102.96 167.09 M8.35 284.48 C35.16 249.47, 62.84 216.21, 106.67 173.95 M7.83 283.82 C39.62 248.14, 68.21 209.52, 104.98 172.28 M11.13 289.33 C28.09 265.67, 53.39 239.17, 110.27 177.53 M11.31 288.88 C33.87 256.93, 58.88 227.28, 108.45 176.57 M14.21 288.72 C33.11 267.41, 58.98 238.61, 105.09 182.4 M10.82 291.74 C49.59 250.01, 88.32 205.47, 110.33 179.53 M11.57 299.58 C41.18 270.48, 58.99 237.8, 110.82 188.43 M12.34 295.14 C42.44 263.3, 71.65 226.42, 108.17 187.03 M11.19 300.59 C30.08 282.32, 50.66 257.19, 113.45 192.93 M12.78 302.2 C50.07 257.59, 88.25 216.7, 112.32 189.4 M18.65 308.37 C39.11 276.67, 68.92 250.91, 112.1 195.67 M16.2 305.96 C43.12 274.21, 69.13 242.6, 113.52 195.81 M16.71 314.28 C40.32 284.41, 66.67 254.07, 109.32 196.65 M18.03 311.56 C47.79 273.97, 79.15 238.46, 113.71 201.38 M15.49 317.6 C39.95 284.01, 68.13 253.48, 117.98 201.06 M15.91 314.85 C54.2 273.64, 92 226.89, 113.61 205.58 M16.16 318.34 C41.2 296.03, 66.71 262.79, 116.89 212.06 M17.93 320.49 C40.23 296.85, 64.19 266.28, 116.94 210.32 M17.77 322.24 C45.56 300.15, 65.17 270.44, 116.99 216.03 M18.16 324.39 C41.53 299.67, 63.81 274.52, 117.24 214.59 M24.21 329.72 C56.16 288.57, 88.59 252.44, 117 215.3 M20.17 327.98 C45.88 295.59, 74.42 263.72, 118.15 220.6 M23.8 336.68 C57.63 291.67, 100.39 249.42, 118.27 225.16 M21.32 336.46 C52.1 301.66, 81.53 265.55, 116.89 224.13 M23.51 335.72 C59.37 303.12, 93.82 262.7, 123.09 231.61 M23.51 341.33 C45.08 313.73, 69.73 290.18, 119.16 229.68 M20.56 340.91 C42.24 318.69, 65.95 298.5, 117.56 236.36 M25.49 342.54 C55.3 307.63, 86.13 273.21, 122.7 232.81 M25.98 352.02 C46.74 319.53, 70.85 296.26, 123.23 241.6 M27 350.14 C60.69 309.52, 94.82 266.87, 121.47 238.31 M28.26 355.31 C60.34 318.31, 96.39 279.7, 127.28 243.2 M25.07 354.38 C61.92 315.69, 96.04 275.62, 124.55 242.8 M27.51 356.7 C61.56 315.74, 96.7 275.09, 126.14 247.53 M28.77 356.34 C61.63 314.89, 99.01 273.8, 124.3 248.85 M31.12 366.62 C47.98 345.24, 66.8 315.16, 124.42 252.38 M27.53 362.06 C48.94 339.14, 72.73 312.43, 123.97 251.35 M29.28 364.18 C65.52 338.29, 92.54 299.79, 127.09 258.51 M31.26 368.16 C58.28 332.81, 85.14 302.08, 130.49 254.4 M30.63 369.97 C51.48 353.82, 66.87 325.71, 126.64 264.2 M30.65 371.97 C63.04 335.43, 98.36 296.48, 126.21 263.25 M32.43 375.28 C69.64 339.44, 97.12 305.56, 122.89 270.11 M31.96 378.15 C64.01 339.92, 95.39 304.76, 125.44 270.51 M32.24 382.86 C66.23 345.9, 99.5 304.26, 119.6 281.39 M33.28 380.82 C55.38 356.33, 81.77 328.72, 123.58 279.65 M34.73 387.93 C58.22 362.68, 74.15 343.01, 120.61 290.64 M36.03 385.93 C57.03 361.96, 77.78 337.75, 121.94 289.36 M34.68 391.15 C53.29 368.48, 78.21 350.47, 117.44 294.7 M36.56 389.62 C61.94 362.21, 88.61 331.61, 119.93 295.67 M36.54 399.43 C60.42 376.1, 77.78 350.33, 115.48 303.85 M38.32 396.41 C67.67 360.38, 98.16 326.63, 113.95 306.55 M40.66 403.1 C50.16 384.09, 66.43 362.36, 113.67 318.59 M38.72 401.71 C55.16 382.01, 69.85 363.87, 113.56 316.06 M38.9 408.73 C65.34 383.73, 81.49 355.76, 111.32 326.62 M41.37 406.08 C59.96 383.9, 77.97 365.72, 113.09 322.72 M38.17 411.33 C72.37 375.51, 93.18 347.53, 107.09 331.85 M40.28 408.72 C69.44 380.59, 96.7 348.84, 111.11 331.86 M40.09 411.14 C51.41 401.98, 69.53 386.26, 110.56 339.18 M44.08 413.73 C64.43 391.84, 86.17 366.52, 106.69 341.81 M43.17 422.85 C69.95 388.18, 91.57 363.86, 104.47 347.69 M42.84 420.62 C59.23 398.71, 78.54 379.03, 106.24 350.44 M46.4 428.35 C59.78 405.57, 78.95 385.09, 104.31 359.42 M44.36 426.49 C67.32 395.79, 89.1 371.56, 103.76 357.36 M48.22 429.76 C60.4 413.51, 71.77 399.9, 101.21 368.4 M45.65 428.41 C61.19 412.72, 77.25 393.98, 100.32 366.22 M45.36 430.4 C63.05 419.51, 77.92 398.41, 100.24 374.34 M48.49 433.76 C62.74 412.23, 79.81 396.1, 99 375.92 M52.51 435.57 C66.35 416.59, 81.09 400.11, 95.28 379.67 M47.65 438.42 C63.82 419.47, 81.18 399.8, 96.37 382.93 M48.5 445.75 C63.52 424.54, 81.74 408.63, 96.67 390.29 M49.75 445.3 C58.75 431.44, 68.17 419.77, 94.77 391.41 M51.9 449.4 C62.76 434.08, 75.85 421.72, 93.37 400.81 M49.48 446.55 C65.42 430.29, 82.17 411.48, 93.13 399.86 M48.61 451.19 C67.14 440.52, 78.85 420.21, 88.58 411.3 M53.79 453.13 C62.15 440.87, 70.83 431.67, 91.18 407.26 M51.47 456.75 C69.25 445.89, 78.54 430.66, 90.71 416.27 M54.12 456.99 C64.38 443.67, 74.75 432.45, 89.02 415.39 M54.46 465.92 C65.74 451.75, 72.57 436.88, 88.19 425.71 M53.28 461.63 C62.79 453.19, 75.56 440.11, 86.63 423.25 M52.32 465.5 C59.79 458.24, 73.91 447.53, 85.18 433.84 M53.6 468.28 C65.21 455.69, 75.86 445.27, 84.12 433.18 M56.1 473.49 C63.96 461.76, 73.24 455.63, 79.71 444.3 M57.22 469.47 C64.3 464, 70.25 457.35, 80.58 441.46 M56.8 475.88 C63.39 467.41, 73.65 459.45, 83.32 454.96 M58.26 475.23 C66.91 465.82, 73.18 458.37, 78.25 452.47 M59.55 483.85 C63.43 472.59, 73.8 461.56, 79.96 462.92 M57.68 479.63 C64.53 475.24, 67.45 470.25, 78.15 461.03 M63.25 486.53 C67.83 478.88, 73.36 471.25, 72.91 469.45 M59.51 486.99 C65.98 482.13, 70.89 476.39, 75.54 466.81 M59.55 488.18 C66.53 484.96, 70.19 485.36, 72.46 473 M62.33 490.19 C62.98 486.65, 66.16 484.07, 72.26 476.41 M63.24 495.87 C65.12 492.51, 67.07 488.94, 73.02 485.32 M63.1 493.64 C64.65 492.07, 68.4 489.14, 71.35 485.68 M62.95 500.03 C65.89 498.64, 67.77 496.91, 69.31 494.16 M64.42 499.99 C65.91 496.92, 68.14 494.31, 69.34 494.45 M63.79 504.31 C63.79 504.31, 63.79 504.31, 63.79 504.31 M63.79 504.31 C63.79 504.31, 63.79 504.31, 63.79 504.31 M65.49 500.56 C64.49 499.32, 63.98 499.29, 62.89 498.03 M64.83 499.96 C64.06 498.96, 63.31 498.64, 62.68 498.13 M65.88 495.06 C64.4 492.88, 61.72 493.82, 61.36 491.04 M65.48 496.21 C65.22 495.23, 63.34 493.13, 60.4 491.53 M65.54 489.34 C66.92 487.58, 63.89 488.41, 58.51 485.92 M66.05 491.13 C65.14 490.5, 62.49 487.96, 58.43 484.98 M67.92 489.97 C62.91 482.74, 61.97 480.36, 59.59 479.34 M67.88 485.84 C66.06 483.6, 62.05 481.14, 56.9 476.43 M66.39 482.47 C66.6 480.15, 56.82 472.82, 56.95 470.44 M71.19 482.77 C66.53 481.32, 64.14 477.83, 54.59 471.09 M74.29 475.72 C65.89 476.55, 58.09 466.14, 53.72 467.1 M71.18 477.63 C67.16 473.64, 62.12 473.97, 52.64 463.33 M73.91 476.71 C61.22 468.92, 54.95 461.54, 53.41 456.81 M70.26 472.62 C63.82 470.39, 57.75 461.67, 51.64 455.51 M76.46 473.6 C71.28 463.31, 65.3 462.11, 50.95 446.32 M73.58 469.27 C66.16 465.31, 59.72 457.11, 50.43 451.47 M72.97 466.54 C67.44 457.69, 57.28 452.54, 44.35 441.41 M75.28 467.2 C68.7 462.02, 64 454.43, 50.12 444.57 M72.37 457.36 C68.8 456.46, 60.62 449.83, 50.53 437.98 M73.49 459.21 C68.82 453.62, 61.65 446.76, 46.41 438.14 M75.77 455.38 C64.27 448.37, 53.26 435.42, 44.55 433.18 M77.21 458.48 C66.69 447.55, 54.28 437.17, 45.47 430.02 M74.68 451.12 C66.35 445.19, 58.17 438.21, 42.41 419.09 M77.14 453.59 C63.27 442.11, 49.44 429.4, 43.36 423.59 M81.28 446.05 C64.53 435.13, 45.21 419.19, 40.27 417.82 M76.61 447.76 C66.57 439.61, 55.39 425.52, 41.85 416.27 M78.66 442.37 C63.83 432.28, 47.97 417.11, 37.45 407.98 M78.43 441.87 C62.32 431.8, 49.88 415.19, 40.06 407.32 M83.09 440.73 C69.85 427.15, 54.1 416.38, 35.43 403.01 M79.75 437.65 C65.3 427.07, 50.73 414.1, 38.1 401.63 M77.48 437.34 C62.34 421.46, 48.48 411.66, 33.11 398.37 M82.2 436.15 C67.82 422.88, 56.06 411.8, 36.93 394.18 M84.67 432.33 C64.21 413.2, 46.85 401.92, 37.56 389.18 M81.79 431.43 C64.34 415.21, 48.3 400.69, 33.74 389.13 M81.16 423.58 C69.71 417.96, 60.78 409.93, 35.25 381.39 M83.23 425.82 C68.7 412.94, 55.18 400.85, 33.84 380.32 M86.38 423.09 C69.75 408.53, 51.75 395.82, 31.82 374.78 M85.86 419.64 C69.34 406.9, 53.15 393.71, 31.01 375.72 M88.13 414.07 C69.43 401.94, 60.44 390.45, 31.33 366.15 M85.75 417.63 C65.97 401.82, 50.82 385.1, 31.37 369.87 M88.92 412.67 C65.27 394.72, 53 380.48, 30.99 358.98 M86.54 412.16 C61.45 393.23, 40.91 374.8, 28.79 363.03 M88.16 409.79 C72.7 394.12, 52.92 380.62, 24.44 358.54 M86.4 410.28 C62.18 386.14, 35.68 367.44, 24.75 353.62 M88.4 400.75 C71.24 385.65, 56.78 378.68, 25.48 346.97 M88.81 404.86 C66.22 384.56, 43.5 364.87, 24.69 346.66 M93.65 399.12 C69.98 389.78, 56.81 368.57, 23.32 342.42 M89.52 397.77 C65.5 379.44, 38.69 353.8, 21.92 342.3 M91.54 394.4 C69.15 369.88, 38.4 352.7, 17.33 336.69 M91.37 394.92 C69.8 375.37, 44.68 355.67, 20.98 334.86 M91.65 389.81 C74.19 377.42, 55.33 366.56, 20.3 330.41 M91.16 389.45 C65.27 368.36, 37.03 343.59, 17.52 329.34 M91.69 384.05 C80.92 370.62, 64.7 359.35, 17.43 323.42 M94.58 384.82 C65.67 365.64, 40.86 344.81, 17.89 321.19 M91.8 384.99 C69.75 357.53, 40.36 340.91, 13.35 313.15 M95.02 381.95 C67.46 357.34, 36.7 330.02, 14.84 316.1 M92.8 375.5 C69.32 354.6, 54.28 334.88, 11.34 305.8 M96.51 378.35 C72.95 356.04, 50.36 337.55, 15.32 306.5 M94.4 375.15 C60.19 344.3, 33.86 319.61, 8.08 302 M96.52 375.23 C61.32 346.14, 30.01 316.43, 11.89 298.62 M101.49 365.95 C76.96 351.38, 61.01 334.08, 12.94 291.91 M96.9 368.63 C67.36 345.44, 36.63 316.66, 10.61 293 M98.35 362.16 C75.29 348.23, 53.7 328.89, 7.7 286.33 M98.74 364.55 C80.48 349.01, 65.78 333.97, 7.36 288.9 M102.96 359.96 C72.91 337.57, 46.98 314.57, 5.78 279.8 M101.2 362.08 C69.91 333.49, 42.92 308.47, 7.79 280.83 M101.19 359.27 C64.17 330.48, 36.2 302.67, 7.05 276.28 M100.46 356.49 C70.34 326.55, 37.67 298.16, 6.62 273.6 M101.07 353.46 C64.55 319.77, 26.89 289.75, 1.01 268.28 M100.53 350.43 C71.54 325.02, 41.14 298.29, 3.57 266.82 M106.31 350.46 C76.66 316.51, 39.25 291.52, -2.14 259.3 M103.4 348.3 C73.74 322.81, 44.43 299.4, 2.97 258.68 M101.54 341.11 C71.47 322.52, 45.86 292.43, 3.43 254.17 M102.94 342.08 C76.78 319.31, 51.97 295.3, 1.38 253.73 M102.02 341.02 C74.22 311.59, 48.3 291.51, 1.49 248.86 M103.23 338.48 C71.13 313.42, 38.18 284.63, 2.45 250.03 M106.96 334.9 C58.87 301.61, 23.17 262.9, 3.46 240.26 M104.45 332.7 C66.17 300.21, 26.88 263.63, 3.32 242.28 M104.96 329.68 C78.21 306, 49.83 279.68, 4.67 237.21 M105.02 330.89 C78.14 306.41, 53.67 283.19, 3.48 238.25 M104.3 328.24 C69.77 290.02, 32.6 260.85, 4.37 232.23 M108.48 325.3 C88.01 308.17, 64.89 290.1, 5.41 235.94 M107.16 319.18 C80.46 299.68, 56.7 273.06, 3.96 231.32 M110.32 321.37 C80.59 292.55, 48.01 264.3, 5.42 230.63 M107.91 314.56 C77.62 283.69, 39.65 253.84, 5.3 227.68 M108.91 316.87 C86.13 296.63, 57.75 273.99, 8.6 226.1 M115.3 315.65 C89.41 292.93, 70.26 269.98, 8.85 223.49 M112.33 313.05 C87.26 292.65, 64.8 272.77, 7.59 221.7 M110.76 310.68 C76.62 278.74, 48.84 257.02, 12.04 219.63 M113.3 309.72 C76.28 279.5, 43.04 247.02, 9.54 219.48 M110.64 304.58 C69.51 271.67, 30.54 232.89, 7.42 213.42 M111.97 304.4 C78.61 271.32, 46.84 244.4, 10.97 215.32 M116.44 300.77 C76.73 267.89, 33.42 229.54, 13 212.43 M114.89 299.44 C79.76 267.4, 39.15 233.76, 12.6 210.08 M113.1 298.86 C93.76 278.6, 76.71 259.31, 14.4 208.17 M113.83 293.17 C86.06 268.88, 51.49 237.71, 14.26 204.67 M115.18 292.41 C82.95 258.15, 48.61 226.22, 11.21 197.85 M116.64 290.97 C90.66 267.92, 64.43 247.8, 13.78 199.24 M117.2 282.72 C91.38 260.76, 59.42 239.6, 15.13 198.16 M118.18 288.44 C94.6 267.3, 69.85 246.01, 13.83 196.24 M115.82 284.53 C88.16 251.14, 53.82 225.93, 16.33 195 M119.15 282.53 C96.01 258.96, 68.71 239.23, 16.82 191.6 M124.12 275.79 C83.32 245.95, 43.7 207.26, 13.59 189.22 M120.99 278.62 C84.66 248.21, 53.37 217.39, 15.75 189.82 M121.84 275.43 C85.31 235.12, 46.11 207.6, 20.64 186.38 M120.74 273.68 C100.93 255.65, 80.51 239.34, 17.11 183.11 M125.63 269.07 C91.23 246.01, 66.57 216.19, 16.37 178.52 M121.93 267.39 C84.54 235.23, 48.27 198.94, 19.76 178.52 M123.32 262.8 C85.3 230.59, 42.78 189.75, 23.06 173.86 M125.42 265.27 C95.88 239.26, 64.22 211.78, 21.76 173.04 M128.14 256.93 C88.14 227.74, 54.33 203.73, 24.68 170.62 M124.33 261.79 C90.81 231.61, 57.91 204.54, 23.29 168.76 M128.23 259.05 C95.73 227.96, 63.7 206.43, 21.11 162.7 M126.11 254.83 C92.52 227.84, 62.21 201.16, 21.53 167.97 M128.68 253.11 C97.42 223.75, 64.95 199.38, 26.38 161.47 M127.22 252.13 C97.45 223.98, 67.93 198.54, 25.48 160.28 M123.17 243.96 C98.9 216.41, 67.65 195.91, 26.95 161.51 M125.43 245.18 C91.51 217.9, 60.46 188.75, 22.9 157.78 M125.63 238.16 C95.62 216.73, 69.64 186.46, 27.94 154.37 M124.04 239.47 C87.7 206.27, 48.75 175.37, 27.13 154.13 M120.6 228.02 C99.52 206.49, 74.55 190.93, 26.62 149.64 M122.93 231.8 C90.33 207.86, 65.38 183.59, 27.27 147.04 M117.8 228.5 C104.34 204.16, 80.98 190.26, 29.69 143.35 M121.72 224.69 C101.58 205.58, 80.9 190.84, 26 144.01 M116.12 217.04 C83.22 184.7, 51.35 155.25, 31.02 135.77 M120.38 219.44 C98.22 199.8, 77.29 181.51, 29.99 141.56 M115.61 209.32 C86.56 186.83, 56.91 158.54, 28.88 131.79 M115.86 213.38 C95.91 193.39, 74.98 175.89, 27.76 134.91 M112.22 204.94 C90.28 177.46, 57.4 154.78, 31.44 130 M113.47 202.86 C98.79 191, 79.77 175.14, 31.83 132.52 M117.83 199.21 C97.97 179.11, 76.1 168.28, 31.08 128.46 M115.5 196.46 C96.83 183.95, 77.88 167.27, 33.55 127.16 M108.23 194.95 C89.11 174.62, 68.59 158.52, 34.54 122.44 M113.82 192.1 C84.77 167.43, 55.78 144.5, 34.02 123.06 M113.87 188.14 C93.24 169.22, 74.34 150.62, 37.27 118.17 M109.33 184.16 C87.03 164.21, 66.54 144.15, 34.93 119.05 M111.88 179.73 C85.16 150.79, 52.2 129.73, 37.6 114.6 M108.5 176.57 C87.65 161.55, 67.92 143.45, 33.45 111.64 M110.03 171.41 C84.27 151.85, 61.83 134.44, 35.04 109.12 M108.03 172 C79.72 148.26, 49.73 123.63, 37.14 110.19 M101.51 167.31 C91.79 154.81, 81.27 141.8, 36.52 103.34 M106.25 162.95 C86.63 150.01, 70.54 137.05, 38.73 104.01 M100.95 153.75 C80.53 135.1, 51.01 111.71, 38.62 100.85 M103.69 156.85 C92.03 146.09, 80.17 132.92, 39.12 101.51 M100.35 151.07 C81.07 135.49, 63.6 117.5, 41.84 96.93 M103.76 149.24 C90.85 140.21, 76.22 126, 38.13 97.27 M103.91 143.25 C78.24 126.12, 59.79 107.21, 40.85 92.31 M100.08 142.86 C79.18 125.08, 57.7 110.13, 41.49 91.24 M99.99 137.77 C84.78 125.09, 73.47 112.6, 38.72 90.97 M97.15 136.77 C80.17 120.54, 58.26 100.11, 43.62 87.8 M97.09 129.34 C80.88 116.73, 58.01 101.65, 45.2 81.81 M98.92 131.51 C83.81 117.98, 68.31 106.92, 42.57 82.94 M94.64 125.59 C76.83 110.17, 64.5 97, 42.95 76.47 M96.23 124.18 C76.25 107.18, 57.94 90.91, 42.86 79.31 M95.01 118.87 C85.46 112.45, 72.63 102.45, 41.78 75.03 M95.38 117.58 C78.81 106.59, 66.77 94.28, 46.36 73.45 M91.42 114.01 C79.01 104.99, 76.93 94.52, 44.92 71.8 M90.76 109.39 C73.47 96.66, 57.63 78.53, 47.18 70.81 M86.81 106.04 C78.41 91.96, 67.27 80.63, 47.28 69.04 M92.28 103.19 C75.12 87.86, 54.94 75.9, 46.54 64.96 M89.78 99.94 C82.19 92.66, 70.45 84.04, 49.68 58.71 M89.92 97.66 C74.61 84.16, 59.31 67.78, 47.62 60.64 M86.56 90.43 C73.46 76.09, 62.79 67.98, 49.08 60.26 M86.41 91.72 C77.78 82.27, 65.62 74.92, 50.48 56.94 M83.82 79.66 C78.1 78.74, 70.4 73, 52.88 54.32 M84.58 83.59 C78.32 77.43, 67.5 70.08, 50.9 54.42 M80.65 72.99 C74.33 70.57, 67.59 63.52, 53.13 52.51 M84 75.92 C69.79 64.79, 57.21 56.59, 51.25 50.21 M80.52 66.79 C72.06 62.61, 62.9 58.99, 56.8 47.13 M81.56 69.02 C76.14 62.49, 64.18 53.98, 51.41 45.13 M78.1 66.08 C70.58 53.79, 69.79 50.18, 52.02 40.97 M78.93 63.83 C73.3 56.83, 67.27 51.64, 55.6 38.86 M79.22 56.36 C69.65 51.45, 56.42 37.17, 54.35 37.02 M79.11 55.16 C73.9 50.2, 64.41 44.92, 55.26 37.02 M80.84 47.37 C70.82 41.56, 62.23 33.21, 56.99 28.21 M79.07 48.78 C69.1 45.19, 64.28 37.36, 55.96 30.32 M73.88 42.78 C71.47 35.22, 67.06 37.07, 61.07 27.22 M77.15 44.53 C70.47 37.69, 60.91 32.49, 56.23 25.67 M71.14 35.96 C65.65 31.89, 62.51 25.94, 57.88 24.17 M73.68 37.44 C70.55 30.51, 65.36 29.09, 58.46 21.33 M71.52 29.74 C64.19 26.57, 62.7 23.7, 59.19 16.67 M71.7 30.71 C71.24 26.16, 67.96 24.49, 59.75 18.04 M70.12 22.39 C69.31 18.39, 65.51 15.9, 62.29 14.1 M71.3 23.36 C67.4 21.01, 66.11 18.58, 59.53 13.96 M70.11 17.39 C68.18 14.9, 66.33 12.58, 61.54 8.07 M69.52 15.87 C68.67 14.76, 66.71 12.85, 62.43 8.92 M67.3 9.58 C65.31 8.41, 65.04 6.77, 62.02 5.79 M67.66 9.84 C65.63 7.9, 64.61 7.14, 62.88 4.79 M65.62 2.26 C65.22 1.79, 64.49 1.31, 63.93 1.21 M65.44 2.17 C64.97 2.07, 64.82 1.62, 63.92 1.09" stroke="black" stroke-width="0.5" fill="none"/><path d="M60.82 3.02 C79.32 74.28, 95.57 142.19, 128.74 250.9 M64.63 -0.38 C86.71 88.33, 107.7 174.53, 125.36 252.54 M127.23 250.66 C108.01 319.57, 87.34 383.32, 62.92 502.18 M124.7 253.38 C108.13 333.85, 89.44 412.53, 63.5 503.38 M61.73 502.78 C41.59 424.76, 24.63 338.93, -0.64 254.72 M63.6 504.56 C45.52 437.59, 26.71 373.14, 0.27 252.43 M2.41 250.1 C12 193.82, 31.43 131.26, 64.35 2.92 M-0.73 253.88 C10.29 201.98, 23.43 149.53, 64.9 -1.33" stroke="#000000" stroke-width="1" fill="none"/></g></svg>